<svg xmlns="http://www.w3.org/2000/svg" style="isolation:isolate" viewBox="0 0 520 520" width="520" height="520"><defs><clipPath id="a"><path d="M0 0h520v520H0z"/></clipPath></defs><g clip-path="url(#a)"><path d="M479 337l2 9c2.999 11.994-.032 24.81 2 37 0 30.543 5 53.693 5 72v1" fill="none"/><path d="M71.356 438.865l-10.418-10.716-.459-1.513C22.73 381.502 0 323.386 0 260.003 0 116.507 116.502.006 260 .006s260 116.501 260 259.997S403.498 520 260 520c-44.738 0-86.851-11.324-123.602-31.298l-6.764-4.248-58.278-45.589z" fill="#F80" style="mix-blend-mode:difference"/><path d="M71.356 438.865l20.404 19.183-.078.008a257.965 257.965 0 0 0 44.716 30.646l-6.764-4.248-58.278-45.589z" fill="#F80" style="mix-blend-mode:difference"/><path d="M71.356 438.865a250.902 250.902 0 0 0 20.326 19.191l.078-.008-20.404-19.183z" fill="#F80" style="mix-blend-mode:difference"/><path d="M435.875 405.778C393.977 456.323 330.718 488.516 260 488.516c-126.121 0-228.516-102.393-228.516-228.513S133.879 31.49 260 31.49s228.516 102.393 228.516 228.513c0 47.69-14.641 91.987-39.702 128.614l-12.939 17.161zm0 0a225.48 225.48 0 0 0 12.939-17.161l-12.939 17.161z" fill="#321B40"/><path d="M59.263 422.624l-9.457-12.7-.214.471 9.67 12.229h.001z"/><path d="M59.262 422.624l-9.456-12.7L235.454-.382l193.913 327.041-314.956 141.822-53.932-48.816-1.217 2.959z"/><path d="M60.856 420.006L275.548 67.238l153.819 259.421-314.956 141.822-53.555-48.475z" fill="#1E1E1E"/><path d="M109.664 464.184l338.379-74.545-318.39 92.638-19.989-18.093zm-43.798-39.643L358.791.006l89.957 388.698-.705.935-338.379 74.545-43.798-39.643zm382.177-34.902l.863-.251-.158-.684-.705.935z" fill="#D90000"/><path d="M78.462 435.943l305.133-326.892 64.822 280.092-.374.496-318.39 92.638-51.191-46.334zm369.581-46.304l.458-.133-.084-.363-.374.496z" fill="#A40000"/><path d="M143.291 486.283l282.113-66.618-282.229 66.466.116.152z" fill="#FF0"/><path d="M151.787 480.832l17.822-.305-.783-.437 256.578-60.425 30.8-40.85 14.538-309.747L91.76 432.493l41.287 25.555-3.413 2.225 22.153 20.559z" fill="#FF0"/><path d="M143.291 486.283l282.113-66.618-282.229 66.466.116.152z" fill="#9F9F00"/><path d="M151.787 480.832l17.822-.305-.783-.437 256.578-60.425 30.8-40.85 8.4-178.977-354.082 244.268 22.525 13.942-3.413 2.225 22.153 20.559z" fill="#9F9F00"/><path d="M479.375 481.407l-30.469 24.374"/><path d="M133.862 487.109c13.922 7.826 28.552 14.036 43.872 18.672m16.25-24.374q-122.49-49.765-155.698-164.53-33.208-114.764-17.973 3.047l11.171 31.484 15.235 54.37q37.802 53.826 87.143 81.331" fill="#F80"/><path d="M46.719 405.778q7.109 9.106 6.094 9.614" fill="#F80" style="mix-blend-mode:exclusion"/><path d="M58.398 423.009c-4.063-7.205-6.195-10.515-7.617-19.043-2.901-14.508-4.557.025-1.777 5.586 2.364 4.728 5.374 5.768 9.141 6.348" fill="none" style="mix-blend-mode:exclusion"/><path d="M44.894 405.547q6.141 11.368 16.318 22.761l9.968-7.147c3.726-2.671 3.341-9.597-.859-15.456l-.548-.764c-4.503-6.281-11.402-9.056-15.397-6.192q-15.623-4.571-9.482 6.798z" fill-rule="evenodd" fill="#F80"/></g></svg>